<svg version="1.1" xmlns="http://www.w3.org/2000/svg" viewBox="0 0 362.6175117279713 249.600462383217" width="725.2350234559426" height="499.200924766434"><!-- svg-source:excalidraw --><metadata></metadata><defs><style class="style-fonts">
      </style></defs><g stroke-linecap="round" transform="translate(10 10) rotate(0 171.30875586398565 114.8002311916085)"><path d="M32 0 C119.07 0, 206.13 0, 310.62 0 M32 0 C107.62 0, 183.24 0, 310.62 0 M310.62 0 C331.95 0, 342.62 10.67, 342.62 32 M310.62 0 C331.95 0, 342.62 10.67, 342.62 32 M342.62 32 C342.62 82.55, 342.62 133.09, 342.62 197.6 M342.62 32 C342.62 74.13, 342.62 116.26, 342.62 197.6 M342.62 197.6 C342.62 218.93, 331.95 229.6, 310.62 229.6 M342.62 197.6 C342.62 218.93, 331.95 229.6, 310.62 229.6 M310.62 229.6 C224.22 229.6, 137.81 229.6, 32 229.6 M310.62 229.6 C242.61 229.6, 174.6 229.6, 32 229.6 M32 229.6 C10.67 229.6, 0 218.93, 0 197.6 M32 229.6 C10.67 229.6, 0 218.93, 0 197.6 M0 197.6 C0 148.44, 0 99.29, 0 32 M0 197.6 C0 133.89, 0 70.19, 0 32 M0 32 C0 10.67, 10.67 0, 32 0 M0 32 C0 10.67, 10.67 0, 32 0" stroke="#1e1e1e" stroke-width="4" fill="none"></path></g><g stroke-linecap="round"><g transform="translate(44.18186805251844 212.52459755222839) rotate(0 138.90824011262828 -63.35116142746284)"><path d="M0 0 C26.13 -26.12, 52.26 -52.24, 88.72 -88.68 M0 0 C21.21 -21.2, 42.41 -42.39, 88.72 -88.68 M88.72 -88.68 C103.38 -74.03, 118.03 -59.38, 133.59 -43.81 M88.72 -88.68 C100.31 -77.1, 111.89 -65.51, 133.59 -43.81 M133.59 -43.81 C151.69 -61.91, 169.79 -80.01, 216.48 -126.7 M133.59 -43.81 C154.66 -64.88, 175.73 -85.95, 216.48 -126.7 M216.48 -126.7 C231.49 -111.7, 246.49 -96.69, 277.82 -65.37 M216.48 -126.7 C234.74 -108.45, 252.99 -90.19, 277.82 -65.37 M277.82 -65.37 C277.82 -49.38, 277.82 -33.39, 277.82 0 M277.82 -65.37 C277.82 -45.12, 277.82 -24.87, 277.82 0 M277.82 0 C183.09 0, 88.36 0, 0 0 M277.82 0 C209.95 0, 142.08 0, 0 0" stroke="#1e1e1e" stroke-width="4" fill="none"></path></g></g><mask></mask><g stroke-linecap="round"><g transform="translate(50.49442914676729 37.32556768938143) rotate(0 15.976477199504984 19.242688668594013)"><path d="M0 0 C0 8.2, 0 16.4, 0 38.49 M0 0 C0 13.05, 0 26.09, 0 38.49 M0 38.49 C7.4 38.49, 14.81 38.49, 31.95 38.49 M0 38.49 C11.91 38.49, 23.82 38.49, 31.95 38.49" stroke="#1e1e1e" stroke-width="4" fill="none"></path></g></g><mask></mask><g stroke-linecap="round"><g transform="translate(66.19626159480936 59.62742712135194) rotate(0 0 16.937565188676473)"><path d="M0 0 C0 9.45, 0 18.9, 0 33.88 M0 0 C0 7.56, 0 15.11, 0 33.88" stroke="#1e1e1e" stroke-width="4" fill="none"></path></g></g><mask></mask><g stroke-linecap="round"><g transform="translate(95.31943294611074 36.725398724157216) rotate(0 16.73811565668882 28.470871399876827)"><path d="M0 0 C9.42 -0.03, 18.85 -0.07, 33.48 -0.12 M0 0 C11 -0.04, 22.01 -0.08, 33.48 -0.12 M33.48 -0.12 C33.48 17.32, 33.48 34.76, 33.48 57.06 M33.48 -0.12 C33.48 12.46, 33.48 25.05, 33.48 57.06 M33.48 57.06 C23.52 57.06, 13.56 57.06, 0 57.06 M33.48 57.06 C24.41 57.06, 15.35 57.06, 0 57.06 M0 57.06 C0 45.64, 0 34.22, 0 0 M0 57.06 C0 36.25, 0 15.44, 0 0" stroke="#1e1e1e" stroke-width="4" fill="none"></path></g></g><mask></mask><g stroke-linecap="round"><g transform="translate(147.99164357812515 37.32556768938143) rotate(0 15.976477199504984 19.242688668594013)"><path d="M0 0 C0 8.93, 0 17.86, 0 38.49 M0 0 C0 9.08, 0 18.16, 0 38.49 M0 38.49 C7.34 38.49, 14.68 38.49, 31.95 38.49 M0 38.49 C8.51 38.49, 17.02 38.49, 31.95 38.49" stroke="#1e1e1e" stroke-width="4" fill="none"></path></g></g><mask></mask><g stroke-linecap="round"><g transform="translate(163.69347602616722 59.62742712135194) rotate(0 0 16.937565188676473)"><path d="M0 0 C0 8.32, 0 16.65, 0 33.88 M0 0 C0 11.99, 0 23.99, 0 33.88" stroke="#1e1e1e" stroke-width="4" fill="none"></path></g></g><mask></mask></svg>